<?xml version="1.0" encoding="UTF-8"?>
<svg id="Layer_1" xmlns="http://www.w3.org/2000/svg" version="1.1" viewBox="0 0 1200.6 645.4">
  <!-- Generator: Adobe Illustrator 29.3.1, SVG Export Plug-In . SVG Version: 2.1.0 Build 151)  -->
  <defs>
    <style>
      .st0 {
        fill: #ffa342;
      }

      .st1 {
        fill: #333132;
      }
    </style>
  </defs>
  <g>
    <path class="st1" d="M471.2,484.6l3.5,4.5,6.4-4.9-13.1-17-6.4,4.9,3.5,4.5-18,13.9,6.2,8,18-13.9ZM470.3,478.1l-4-5.2.9-.7,8.8,11.4-.9.7-4-5.2-17.6,13.6-.7-.9,17.6-13.6Z"/>
    <path class="st1" d="M474.8,514.4c1.1,1,2.2,1.8,3.6,2.3,1.3.5,2.6.7,4,.7,1.4,0,2.7-.3,4-.8,1.3-.5,2.4-1.3,3.5-2.4,1-1.1,1.8-2.2,2.3-3.6.5-1.3.7-2.6.7-4,0-1.4-.3-2.7-.8-4-.5-1.3-1.3-2.4-2.4-3.5s-2.2-1.8-3.6-2.3c-1.3-.5-2.6-.7-4-.7-1.4,0-2.7.3-4,.8-1.3.5-2.4,1.3-3.5,2.4-1,1.1-1.8,2.2-2.3,3.6-.5,1.3-.7,2.6-.7,4,0,1.4.3,2.7.8,4,.5,1.3,1.3,2.4,2.4,3.5ZM476.1,504.5c.3-.8.8-1.5,1.4-2.2.6-.6,1.3-1.1,2.1-1.5.8-.3,1.6-.5,2.4-.5.8,0,1.6.1,2.4.4.8.3,1.5.8,2.2,1.4.6.6,1.1,1.3,1.5,2.1.3.8.5,1.6.5,2.4,0,.8-.1,1.6-.4,2.4s-.8,1.5-1.4,2.2c-.6.6-1.3,1.1-2.1,1.5-.8.3-1.6.5-2.4.5-.8,0-1.6-.1-2.4-.4-.8-.3-1.5-.8-2.2-1.4-.6-.6-1.1-1.3-1.5-2.1-.3-.8-.5-1.6-.5-2.4,0-.8.1-1.6.4-2.4Z"/>
    <path class="st1" d="M470.9,518.4c1.6,1.5,3.4,2.7,5.4,3.4,2,.8,4,1.1,6.1,1.1,2.1,0,4.1-.5,6.1-1.3,2-.8,3.7-2,5.3-3.6,1.5-1.6,2.7-3.4,3.4-5.4.8-2,1.1-4,1.1-6.1,0-2.1-.5-4.1-1.3-6.1-.8-2-2-3.7-3.6-5.3s-3.4-2.7-5.4-3.4c-2-.8-4-1.1-6.1-1.1-2.1,0-4.1.5-6.1,1.3-2,.8-3.7,2-5.3,3.6-1.5,1.6-2.7,3.4-3.4,5.4-.8,2-1.1,4-1.1,6.1,0,2.1.5,4.1,1.3,6.1.8,2,2,3.7,3.6,5.3ZM471.1,502.6c.5-1.5,1.4-2.8,2.5-3.9,1.1-1.2,2.4-2.1,3.8-2.7,1.4-.6,2.9-.9,4.4-1,1.5,0,3,.2,4.5.8,1.5.5,2.8,1.4,3.9,2.5,1.2,1.1,2.1,2.4,2.7,3.8.6,1.4.9,2.9,1,4.4,0,1.5-.2,3-.8,4.5s-1.4,2.8-2.5,3.9c-1.1,1.2-2.4,2.1-3.8,2.7-1.4.6-2.9.9-4.4,1-1.5,0-3-.2-4.5-.8-1.5-.5-2.8-1.4-3.9-2.5-1.2-1.1-2.1-2.4-2.7-3.8-.6-1.4-.9-2.9-1-4.4,0-1.5.2-3,.8-4.5Z"/>
    <path class="st1" d="M506.8,536.1c2.8-.3,5.2-1.9,7.1-4.8,1.9-2.9,2.5-5.7,1.7-8.4-.8-2.7-2.9-5.1-6.1-7.2l-2.3-1.5-11.7,17.6,2.3,1.5c3.3,2.2,6.3,3.1,9.1,2.8ZM508.3,519.7c1.9,1.3,3.1,2.7,3.6,4.3.5,1.6,0,3.3-1.2,5.2-1.2,1.9-2.7,2.9-4.3,3.1-1.7.2-3.4-.3-5.4-1.6l7.3-11Z"/>
    <path class="st1" d="M502,540.7c2.2.7,4.4.9,6.4.7,2-.2,3.9-.9,5.6-2.1,1.7-1.2,3.3-2.8,4.7-4.9,1.4-2.1,2.3-4.2,2.7-6.2.4-2.1.3-4-.3-6-.6-1.9-1.6-3.8-3.2-5.6-1.5-1.8-3.5-3.5-5.9-5.1l-7.1-4.7-17,25.6,7.1,4.7c2.4,1.6,4.7,2.7,7,3.4ZM506.7,512.6l3.3,2.2c3.7,2.5,6,5.2,6.8,8.2.8,3,.2,6-1.9,9.1-2.1,3.1-4.6,4.9-7.6,5.3-3,.4-6.4-.6-10.2-3.1l-3.3-2.2,12.9-19.5Z"/>
    <path class="st1" d="M524.1,553.5c1.5,1.5,3.2,2.8,5.3,3.6,2,.9,4.1,1.3,6.3,1.3,2.1,0,4.2-.4,6.1-1.2,1.9-.8,3.6-1.9,5.2-3.4,1.5-1.5,2.8-3.2,3.6-5.3.9-2,1.3-4.1,1.3-6.3,0-2.1-.4-4.2-1.2-6.1-.8-1.9-1.9-3.6-3.4-5.2-1.5-1.5-3.2-2.8-5.3-3.6-2-.9-4.1-1.3-6.3-1.3-2.1,0-4.2.4-6.1,1.2-1.9.8-3.6,1.9-5.2,3.4-1.5,1.5-2.8,3.2-3.6,5.3-.9,2-1.3,4.1-1.3,6.3,0,2.1.4,4.2,1.2,6.1.8,1.9,1.9,3.6,3.4,5.2ZM524.8,537.7c.6-1.5,1.5-2.8,2.6-3.9,1.1-1.1,2.4-1.9,3.8-2.5,1.4-.6,2.9-.9,4.5-.9,1.6,0,3.1.3,4.6.9,1.5.6,2.8,1.5,3.9,2.6,1.1,1.1,1.9,2.4,2.5,3.8.6,1.4.9,2.9.9,4.5,0,1.6-.3,3.1-.9,4.6-.6,1.5-1.5,2.8-2.6,3.9-1.1,1.1-2.4,1.9-3.8,2.5-1.4.6-2.9.9-4.5.9-1.6,0-3.1-.3-4.6-.9-1.5-.6-2.8-1.5-3.9-2.6-1.1-1.1-1.9-2.4-2.5-3.8-.6-1.4-.9-2.9-.9-4.5,0-1.6.3-3.1.9-4.6Z"/>
    <path class="st1" d="M528.1,549.7c1,1,2.1,1.8,3.5,2.4,1.4.6,2.7.9,4.1.8,1.4,0,2.7-.3,4-.8,1.3-.5,2.4-1.2,3.4-2.2,1-1,1.8-2.1,2.4-3.5.6-1.4.9-2.7.8-4.1,0-1.4-.3-2.7-.8-4-.5-1.3-1.2-2.4-2.2-3.4-1-1-2.1-1.8-3.5-2.4-1.4-.6-2.7-.9-4.1-.8-1.4,0-2.7.3-4,.8s-2.4,1.2-3.4,2.2c-1,1-1.8,2.1-2.4,3.5-.6,1.4-.9,2.7-.8,4.1,0,1.4.3,2.7.8,4,.5,1.3,1.2,2.4,2.2,3.4ZM529.8,539.8c.3-.8.8-1.5,1.4-2.1.6-.6,1.3-1,2.1-1.3.8-.3,1.6-.5,2.4-.5.9,0,1.7.2,2.5.5.8.3,1.5.8,2.1,1.4.6.6,1,1.3,1.3,2.1.3.8.5,1.6.5,2.4,0,.9-.2,1.7-.5,2.5-.3.8-.8,1.5-1.4,2.1-.6.6-1.3,1-2.1,1.3-.8.3-1.6.5-2.4.5-.9,0-1.7-.2-2.5-.5-.8-.3-1.5-.8-2.1-1.4-.6-.6-1-1.3-1.3-2.1-.3-.8-.5-1.6-.5-2.4,0-.9.2-1.7.5-2.5Z"/>
    <path class="st1" d="M564.8,544.9c.2-.1.5-.2.7-.2.3,0,.5,0,.8,0,.3,0,.5.1.7.1.3,0,.6.2.9.3.3.1.6.2.8.3.3.1.6.2.8.3l2.1-8.4c-.6-.2-1.2-.5-1.9-.8-.6-.2-1.2-.4-1.9-.7-.7-.3-1.4-.5-2.1-.7-1.4-.3-2.7-.5-4-.4-1.3,0-2.5.3-3.6.8-1.1.5-2,1.2-2.8,2.2-.8.9-1.3,2.1-1.7,3.5-.3,1.3-.4,2.4-.2,3.5.2,1.1.5,2.1.9,3,.4.9,1,1.8,1.5,2.6.6.8,1.1,1.5,1.6,2.2.5.7.9,1.2,1.2,1.7.3.5.4,1,.3,1.3-.3,1-1.1,1.3-2.4,1-.8-.2-1.5-.4-2.3-.7-.7-.3-1.4-.6-1.9-.9-.7-.3-1.3-.6-1.9-1l-2.3,8.9c.7.4,1.4.8,2.2,1.1.7.3,1.5.7,2.5,1,.9.3,2,.7,3.1,1,1.9.5,3.6.6,5.1.5,1.5-.1,2.8-.5,3.9-1.2,1.1-.6,2-1.5,2.7-2.5.7-1,1.2-2.2,1.6-3.5.3-1.3.4-2.4.3-3.6-.1-1.1-.4-2.1-.8-3.1-.4-1-.8-1.8-1.4-2.6-.5-.8-1-1.5-1.5-2.1-.5-.6-.8-1.2-1.2-1.6-.3-.5-.4-.8-.4-1,0-.3.2-.5.4-.6ZM559.4,545.3c.3.8.6,1.6,1.1,2.4.5.8,1,1.7,1.6,2.5.6.8,1.1,1.7,1.6,2.6.5.9.9,1.8,1.1,2.7.2.9.2,1.8,0,2.6-.3,1-.7,1.8-1.2,2.4-.6.6-1.2,1.1-1.9,1.3-.7.3-1.5.4-2.4.4-.8,0-1.7-.1-2.5-.3-.5-.1-.9-.3-1.4-.4-.5-.2-.9-.3-1.3-.5-.5-.2-.9-.4-1.3-.6l.3-1.2c.4.2.8.4,1.2.6.8.4,1.7.7,2.7.9,1.7.4,3.1.4,4.3-.1,1.2-.5,1.9-1.5,2.3-2.9.2-.8.2-1.6,0-2.4-.3-.8-.6-1.7-1.1-2.5-.5-.8-1-1.7-1.6-2.5-.6-.8-1.1-1.7-1.6-2.6-.5-.9-.9-1.7-1.1-2.6-.2-.8-.3-1.7,0-2.5.4-1.5,1.2-2.6,2.4-3,1.2-.5,2.6-.5,4.3,0,.3,0,.5.1.8.2.2,0,.5.2.7.2.2,0,.5.2.7.2l-.3,1.2c-.2,0-.5-.1-.7-.2-.2,0-.5-.2-.7-.3-.3,0-.5-.1-.7-.2-1.5-.4-2.7-.4-3.5,0-.8.4-1.4,1.1-1.7,2.2-.2.7-.1,1.5.1,2.2Z"/>
    <path class="st1" d="M583.7,539.7l-2.4,30.7,18.7,1.5.6-8-8.5-.7,1.8-22.6-10.2-.8ZM597.8,566.9v1.1c0,0-11.6-.9-11.6-.9l1.8-23.3h1.2c0,0-1.7,22.3-1.7,22.3l10.3.8Z"/>
    <path class="st1" d="M628,543.8c-1.6-1.4-3.3-2.4-5.4-3.1-2-.7-4.1-1-6.3-.8-2.2.1-4.3.7-6.2,1.7-1.9,1-3.5,2.2-4.9,3.8-1.4,1.6-2.4,3.3-3.1,5.4-.7,2-1,4.1-.8,6.3.1,2.2.7,4.3,1.7,6.2,1,1.9,2.2,3.5,3.8,4.9,1.6,1.4,3.3,2.4,5.4,3.1,2,.7,4.1,1,6.3.8,2.2-.1,4.3-.7,6.2-1.7,1.9-1,3.5-2.2,4.9-3.8,1.4-1.6,2.4-3.3,3.1-5.4.7-2,1-4.1.8-6.3-.1-2.2-.7-4.3-1.7-6.2-1-1.9-2.2-3.5-3.8-4.9ZM628.5,559.8c-.5,1.5-1.3,2.8-2.3,3.9-1,1.1-2.2,2.1-3.6,2.8-1.4.7-2.9,1.1-4.5,1.2-1.6.1-3.2,0-4.6-.6-1.5-.5-2.8-1.3-3.9-2.3-1.1-1-2.1-2.2-2.8-3.6-.7-1.4-1.1-2.9-1.2-4.5-.1-1.6,0-3.2.6-4.6.5-1.5,1.3-2.8,2.3-3.9,1-1.1,2.2-2.1,3.6-2.8,1.4-.7,2.9-1.1,4.5-1.2,1.6-.1,3.2,0,4.6.6,1.5.5,2.8,1.3,3.9,2.3,1.1,1,2.1,2.2,2.8,3.6.7,1.4,1.1,2.9,1.2,4.5.1,1.6,0,3.2-.6,4.6Z"/>
    <path class="st1" d="M626.8,551.1c-.6-1.2-1.5-2.3-2.5-3.2-1-.9-2.2-1.6-3.5-2.1-1.3-.5-2.7-.7-4.2-.6-1.5,0-2.8.5-4.1,1.1-1.2.6-2.3,1.5-3.2,2.5-.9,1-1.6,2.2-2.1,3.5s-.7,2.7-.6,4.2c0,1.5.5,2.8,1.1,4.1.6,1.2,1.5,2.3,2.5,3.2,1,.9,2.2,1.6,3.5,2.1,1.3.5,2.7.7,4.2.6,1.5,0,2.8-.5,4.1-1.1,1.2-.6,2.3-1.5,3.2-2.5.9-1,1.6-2.2,2.1-3.5.5-1.3.7-2.7.6-4.2,0-1.5-.5-2.8-1.1-4.1ZM623.5,558c-.3.8-.7,1.5-1.2,2.1-.5.6-1.2,1.1-2,1.5-.8.4-1.6.6-2.5.7-.9,0-1.7,0-2.5-.3-.8-.3-1.5-.7-2.1-1.2-.6-.5-1.1-1.2-1.5-2-.4-.8-.6-1.6-.7-2.5,0-.9,0-1.7.3-2.5.3-.8.7-1.5,1.2-2.1.5-.6,1.2-1.1,2-1.5.8-.4,1.6-.6,2.5-.7.9,0,1.7,0,2.5.3.8.3,1.5.7,2.1,1.2.6.5,1.1,1.2,1.5,2,.4.8.6,1.6.7,2.5,0,.9,0,1.7-.3,2.5Z"/>
    <path class="st1" d="M642.6,559.4c-.8.2-1.6.3-2.3.4-.8,0-1.5.1-2.1,0-.7,0-1.5,0-2.2,0l2,9c.8,0,1.6,0,2.5,0,.8,0,1.7,0,2.7-.2,1-.1,2.1-.3,3.2-.5,1.9-.4,3.5-1,4.7-1.8,1.3-.8,2.3-1.7,2.9-2.8.7-1.1,1.1-2.2,1.3-3.5.2-1.2,0-2.5-.2-3.9-.3-1.3-.7-2.4-1.4-3.3-.6-.9-1.3-1.7-2.1-2.4-.8-.7-1.6-1.3-2.4-1.7-.8-.5-1.6-.9-2.3-1.2-.7-.4-1.3-.7-1.8-.9-.5-.3-.8-.5-.8-.8,0-.3,0-.5.1-.7s.3-.3.6-.5c.2-.1.5-.2.7-.3.3,0,.5-.1.7-.2.3,0,.6-.1,1-.2.3,0,.6,0,.8,0,.3,0,.6,0,.8,0l-1.9-8.4c-.7,0-1.3.1-2,.2-.6,0-1.2.1-2,.2-.7,0-1.5.2-2.2.4-1.4.3-2.6.8-3.8,1.4-1.1.6-2.1,1.4-2.8,2.3-.7.9-1.2,2-1.5,3.2-.3,1.2-.2,2.5,0,3.9.3,1.3.7,2.3,1.4,3.2.6.9,1.4,1.6,2.2,2.3.8.6,1.7,1.2,2.5,1.6.9.4,1.7.8,2.4,1.2.8.4,1.4.7,1.9,1,.5.3.8.7.9,1.1.2,1-.4,1.7-1.7,2ZM649.4,557.1c-.2-.8-.6-1.5-1.2-2.1-.6-.6-1.3-1.2-2.1-1.7-.8-.5-1.7-1-2.6-1.5-.9-.5-1.8-1-2.6-1.6-.8-.6-1.5-1.2-2.1-1.8-.6-.6-1-1.4-1.2-2.2-.3-1.6,0-2.8.8-3.8.9-1,2.1-1.6,3.8-2,.3,0,.5-.1.8-.2.3,0,.5,0,.7,0,.2,0,.5,0,.7-.1l.3,1.2c-.2,0-.5,0-.7.1-.2,0-.5,0-.8,0-.3,0-.5,0-.7.1-1.5.3-2.6.9-3.1,1.6-.6.7-.7,1.6-.5,2.7.2.7.5,1.4,1.1,1.9.6.6,1.3,1.1,2.1,1.7.8.5,1.7,1,2.6,1.5.9.5,1.8,1,2.6,1.6.8.6,1.6,1.2,2.2,1.9.6.7,1,1.5,1.2,2.3.2,1,.2,1.9,0,2.7-.2.8-.6,1.5-1.1,2.1s-1.2,1.1-1.9,1.4c-.8.4-1.5.7-2.4.8-.5.1-1,.2-1.4.2-.5,0-.9.1-1.4.1-.5,0-1,0-1.4,0l-.3-1.2c.4,0,.9,0,1.4,0,.9,0,1.8-.2,2.8-.4,1.7-.4,3-1.1,3.8-2,.8-1,1.1-2.2.7-3.6Z"/>
    <path class="st1" d="M688.1,553.4l-3.1-7.5-7.8,3.2-8.6-21-9.5,3.9,11.7,28.4,17.3-7.1ZM665.8,533.3l8.5,20.6,9.6-3.9.4,1-10.7,4.4-8.9-21.6,1.1-.5Z"/>
    <path class="st1" d="M693.1,548.5c1.5.3,3,.3,4.6-.1,1.6-.4,3.2-1,4.9-2,1.7-1,3.1-2.1,4.2-3.3s1.9-2.5,2.4-3.9c.5-1.4.6-2.9.4-4.5-.2-1.6-.9-3.3-1.9-5l-9.8-16.9-8.5,5,9.6,16.5c.5.9.8,1.8.7,2.5,0,.7-.6,1.3-1.5,1.9-.9.5-1.7.7-2.4.4-.7-.3-1.3-.9-1.8-1.8l-9.6-16.5-8.5,4.9,9.8,16.9c1,1.8,2.2,3.1,3.4,4.1,1.3,1,2.6,1.6,4.1,1.9ZM681.5,526.4l1-.6,7.8,13.4c2.3,3.9,5.4,4.7,9.4,2.4,4-2.3,4.8-5.4,2.6-9.3l-7.8-13.4,1.1-.6,7.8,13.4c1.3,2.2,1.7,4.3,1.2,6.2-.5,1.9-1.9,3.5-4.2,4.8-2.3,1.3-4.3,1.7-6.2,1.3-1.9-.5-3.5-1.8-4.8-4.1l-7.8-13.4Z"/>
    <path class="st1" d="M738.5,518.9l-19.7-23.7-7.4,6.2,7.6,9.1-14.1-3.7-6.2,5.2,19.7,23.7,7.4-6.2-7.5-9.1,14,3.7,6.2-5.2ZM706.6,512.9l13.6,16.4-.9.8-14.9-18,.9-.8,25.3,6.7-13.6-16.4.9-.8,14.9,18-.9.8-25.3-6.7Z"/>
    <path class="st1" d="M754.9,501l-6-5.4-5.8,6.4-2.6-2.4,5.5-6.1-5.7-5.1-5.5,6.1-2.5-2.3,5.6-6.2-6-5.4-12.2,13.4,22.8,20.6,12.4-13.7ZM732.5,485.3l.8.7-6.2,6.8,7.4,6.7,5.9-6.5.8.7-5.9,6.5,7.5,6.8,6.2-6.8.8.7-7,7.7-17.3-15.7,7-7.7Z"/>
    <path class="st1" d="M755.5,474.2c-1,0-2,.1-3,.3-.9.2-1.8.4-2.5.6-.7.2-1.4.4-1.9.5-.5.1-.9.1-1.1,0-.2-.2-.3-.4-.4-.6,0-.2,0-.5.1-.7,0-.2.2-.5.4-.7.1-.2.3-.4.4-.6.2-.3.4-.5.6-.8.2-.2.4-.4.6-.6.2-.2.4-.4.6-.6l-7-5c-.4.5-.9,1-1.4,1.5-.4.4-.8.9-1.3,1.5-.5.6-1,1.1-1.4,1.7-.8,1.2-1.4,2.3-1.8,3.6-.4,1.2-.6,2.4-.5,3.6,0,1.2.4,2.3,1,3.4.6,1.1,1.5,2,2.7,2.9,1.1.7,2.1,1.2,3.2,1.5,1.1.2,2.1.3,3.1.2,1,0,2-.2,3-.5.9-.3,1.8-.5,2.6-.8.8-.2,1.5-.4,2.1-.5.6-.1,1,0,1.4.2.9.6.9,1.5,0,2.6-.5.7-1,1.3-1.5,1.9-.5.6-1,1.1-1.5,1.5-.5.5-1.1,1-1.6,1.4l7.5,5.4c.6-.5,1.2-1,1.9-1.7.6-.5,1.2-1.2,1.9-1.9.7-.8,1.3-1.6,2-2.6,1.1-1.6,1.9-3.1,2.3-4.5.4-1.4.5-2.8.3-4-.2-1.2-.6-2.4-1.4-3.4-.7-1-1.6-1.9-2.7-2.7-1.1-.7-2.1-1.3-3.2-1.5-1.1-.3-2.1-.4-3.2-.4ZM760.8,481.6c.4.7.5,1.5.6,2.3,0,.8-.2,1.6-.5,2.4-.3.8-.7,1.5-1.2,2.2-.3.4-.6.8-.9,1.1-.3.4-.6.7-.9,1-.3.4-.7.7-1,1l-1-.7c.3-.3.6-.6,1-1,.6-.6,1.2-1.3,1.8-2.2,1-1.4,1.5-2.8,1.5-4,0-1.3-.7-2.3-1.9-3.2-.7-.5-1.4-.7-2.3-.8-.9,0-1.8,0-2.7.1-1,.2-1.9.4-3,.6-1,.2-2,.4-3,.6-1,.1-1.9.2-2.8.1-.9,0-1.7-.4-2.4-.9-1.3-.9-1.9-2-1.9-3.4,0-1.3.5-2.6,1.5-4,.2-.2.3-.4.5-.6.2-.2.3-.4.5-.5.2-.2.3-.4.4-.5l1,.7c-.1.2-.3.4-.5.6-.2.2-.3.4-.5.6-.2.2-.3.4-.5.6-.9,1.3-1.3,2.4-1.2,3.3,0,.9.6,1.7,1.5,2.3.6.4,1.3.7,2.1.7.8,0,1.7,0,2.7-.2,1-.2,2-.4,3-.6,1-.2,2-.4,3-.6,1-.1,2-.2,2.9,0,.9.1,1.7.4,2.5.9.9.6,1.5,1.3,1.8,2Z"/>
    <path class="st1" d="M482.1,114.2l-17.2,16.2,27.5,29.2,17.5-16.5-7.2-7.7-8.2,7.7-3.2-3.4,7.8-7.3-6.8-7.3-7.8,7.3-3-3.2,7.9-7.4-7.2-7.7ZM483.6,139.2l8.3-7.8,1,1.1-8.3,7.8,9,9.6,8.8-8.2,1,1.1-9.9,9.3-20.9-22.2,9.9-9.3,1,1.1-8.8,8.2,8.9,9.5Z"/>
    <path class="st1" d="M490.5,106.9l30.9,28.7,8.7-4.8-2.3-12.6,9.4,8.7,8.7-4.8-7.8-41.5-11.9,6.6,2.7,14.5-10.8-10-7.7,4.2,2.7,14.5-10.8-10-11.9,6.6ZM516.7,98l21.1,20-5.4-28.7,1.4-.8,5.9,31.5-1.3.7-19.2-18.2,5.1,25.9-1.3.7-23.5-21.9,1.4-.8,21.4,19.9-5.7-28.5Z"/>
    <path class="st1" d="M566.2,85c.3-.1.6-.3,1-.4.3,0,.6-.2.9-.2.4,0,.8-.2,1.2-.2.4,0,.8,0,1.1-.1.4,0,.8,0,1.1-.1l-2.3-11c-.8,0-1.7.1-2.6.2-.8,0-1.6.2-2.6.3-1,.1-1.9.2-2.9.4-1.8.4-3.4,1-4.9,1.8-1.5.8-2.7,1.8-3.7,3-1,1.2-1.7,2.6-2,4.1-.4,1.6-.4,3.3,0,5.1.3,1.6.9,3.1,1.7,4.2.8,1.2,1.8,2.2,2.8,3,1.1.8,2.1,1.6,3.3,2.1,1.1.6,2.2,1.1,3.2,1.6,1,.5,1.8.9,2.5,1.3.7.4,1,.9,1.2,1.4.3,1.3-.5,2.2-2.3,2.6-1,.2-2,.4-3.1.5-1,0-2,.1-2.8,0-1,0-1.9,0-2.8,0l2.5,11.8c1,0,2.1,0,3.3,0,1,0,2.2,0,3.5-.2,1.3-.1,2.7-.4,4.2-.7,2.5-.5,4.5-1.3,6.2-2.3,1.7-1,3-2.2,3.9-3.6.9-1.4,1.5-2.9,1.7-4.5.2-1.6.2-3.3-.2-5-.3-1.6-.9-3.1-1.7-4.3-.8-1.2-1.7-2.3-2.7-3.2-1-.9-2-1.7-3.1-2.3-1.1-.6-2.1-1.2-3-1.6-.9-.5-1.7-.9-2.3-1.2-.6-.4-1-.7-1-1,0-.4,0-.7.2-.9.2-.2.4-.4.7-.6ZM557.9,86.5c.2.9.7,1.8,1.4,2.6s1.7,1.5,2.7,2.2c1.1.7,2.2,1.4,3.4,2,1.2.7,2.3,1.4,3.4,2.1,1.1.8,2,1.6,2.8,2.5.8.9,1.3,1.9,1.5,3.1.3,1.3.3,2.5,0,3.5-.3,1-.8,1.9-1.5,2.7-.7.8-1.5,1.4-2.5,1.9-1,.5-2,.8-3.1,1.1-.6.1-1.3.2-1.9.3-.6,0-1.2.1-1.8.2-.6,0-1.3,0-1.8,0l-.3-1.5c.6,0,1.2,0,1.8,0,1.1,0,2.4-.2,3.7-.5,2.2-.5,3.9-1.3,5-2.6,1.1-1.2,1.4-2.8,1-4.7-.2-1-.7-1.9-1.5-2.8-.8-.8-1.7-1.6-2.8-2.3-1.1-.7-2.2-1.4-3.4-2-1.2-.7-2.3-1.3-3.4-2.1-1.1-.7-2-1.5-2.8-2.4-.8-.8-1.3-1.8-1.5-2.9-.4-2,0-3.7,1.1-4.9,1.2-1.2,2.8-2.1,4.9-2.5.4,0,.7-.1,1-.2.3,0,.6,0,.9-.1.3,0,.6,0,.9-.1l.3,1.5c-.3,0-.6.1-1,.1-.3,0-.7,0-1,.1-.3,0-.7.1-1,.2-2,.4-3.4,1.1-4.1,2.1-.7,1-1,2.1-.7,3.5Z"/>
    <path class="st1" d="M611,99.6l-11.1.2-.5-29.6-13.3.2.6,40.1,24.4-.4-.2-10.5ZM592.7,105.6l-.5-30.5h1.6s.5,29,.5,29l13.5-.2v1.4s-15,.2-15,.2Z"/>
    <path class="st1" d="M619.4,110.3l23.7,4.1,1.8-10.4-11.1-1.9.8-4.6,10.5,1.8,1.7-9.8-10.5-1.8.8-4.4,10.7,1.9,1.8-10.4-23.3-4-6.9,39.5ZM644.7,78.9l-.2,1.4-11.8-2.1-2.2,12.8,11.3,2-.2,1.4-11.3-2-2.3,13,11.8,2.1-.2,1.4-13.4-2.3,5.2-30,13.4,2.3Z"/>
    <path class="st1" d="M666.7,123l10.7-27.6,6.9,2.7,3.8-9.8-26.1-10.1-3.8,9.8,6.9,2.7-10.7,27.6,12.3,4.8ZM664.1,85.7l.5-1.3,17.5,6.8-.5,1.3-8-3.1-10.5,27.1-1.5-.6,10.5-27.1-8-3.1Z"/>
    <path class="st1" d="M693.7,137.9l16.3-24.7,6.2,4.1,5.8-8.8-23.4-15.4-5.8,8.8,6.2,4.1-16.3,24.7,11,7.3ZM699,100.8l.8-1.2,15.7,10.3-.8,1.2-7.2-4.7-16,24.3-1.3-.9,16-24.3-7.2-4.7Z"/>
    <path class="st1" d="M740.5,140.3l7.4-7.5-16.8-16.6-28.2,28.5,17.1,16.9,7.4-7.5-8-7.9,3.3-3.3,7.6,7.5,7-7.1-7.6-7.5,3.1-3.2,7.7,7.6ZM723,135.2l8.1,8-1,1-8.1-8-9.2,9.4,8.6,8.4-1,1-9.7-9.5,21.4-21.7,9.7,9.5-1,1-8.6-8.4-9.1,9.2Z"/>
    <path class="st1" d="M754,182.7c1.1,0,2.5,0,3.9-.3,1.5-.3,3.1-1,4.7-2.1,2.1-1.4,3.7-3,4.9-4.8,1.1-1.8,1.8-3.8,2.1-5.8.2-2.1,0-4.2-.6-6.4-.6-2.2-1.6-4.4-3-6.5l-7.5-11.6-33.6,21.9,7,10.7,8.5-5.5-5.2,10.6,8.2,12.6,7-13.5c1.2.4,2.4.7,3.7.8ZM742.4,185l-1-1.6,4.9-10c-1.1-1.1-2-2.3-2.9-3.6l-2.7-4.1-7.7,5-.9-1.3,25.5-16.6,3.5,5.4c1,1.6,1.8,3.2,2.3,4.8.5,1.6.7,3.1.6,4.6-.1,1.5-.5,2.9-1.3,4.2-.7,1.3-1.8,2.4-3.3,3.4-2.1,1.4-4.2,2-6.2,1.7-2-.2-3.9-1-5.8-2.4l-5.2,10.5Z"/>
    <path class="st1" d="M758.7,173.9c2.5-1.6,3.8-3.7,4.1-6.3.2-2.6-.7-5.4-2.7-8.5l-2.7-4.1-15.5,10.1,2.7,4.1c2,3.1,4.2,5,6.7,5.9,2.5.9,4.9.5,7.4-1.1ZM752.3,169.9c-1.2-.5-2.1-1.4-3-2.7l-.4-.6,7.5-4.9.4.6c.8,1.3,1.2,2.5,1.3,3.8,0,1.3-.7,2.3-2,3.2-1.3.9-2.6,1.1-3.7.5Z"/>
    <path class="st1" d="M435.5,169.9l24,16.1c1.2-1.4,2.5-2.8,3.8-4.2l-20.7-13.9.9-1.3,34.1-1-23.1-15.5.9-1.3,25.3,17-.9,1.3-34.1,1,18.8,12.6c1.3-1.2,2.7-2.5,4.2-3.7l-5.7-3.8,11-.3c4.1-3,8.7-5.9,13.6-8.7l.2-.4-33.3-22.3-7,10.4,12.8,8.6-19,.6-5.9,8.7Z"/>
    <path class="st1" d="M398.4,234.7h0c1.2,0,2.2-.9,2.3-2,6.5-43.4,26.6-83.5,58.3-115.2,39.3-39.3,91.6-60.8,147.2-60.6,54.5.2,106.7,22,145.3,60.6,31.6,31.6,51.7,71.7,58.3,115.2.2,1.2,1.2,2,2.3,2h0c1.4,0,2.5-1.3,2.3-2.7-6.7-44.4-27.2-85.5-59.6-117.8-40-40-93.1-62-149.6-62s0,0,0,0c-56.5,0-109.6,22-149.6,62-32.4,32.4-52.9,73.4-59.6,117.8-.2,1.4.9,2.7,2.3,2.7Z"/>
    <path class="st1" d="M811.9,410h0c-1.2,0-2.1.9-2.3,2-6.7,43-26.7,82.7-58.1,114.1-39.1,39.1-91,60.6-146.2,60.6s-107.2-21.5-146.2-60.6c-31.4-31.4-51.4-71.1-58.1-114.1-.2-1.2-1.2-2-2.3-2h0c-1.4,0-2.5,1.3-2.3,2.7,6.8,44,27.3,84.7,59.4,116.8,40,40,93.1,62,149.6,62s109.6-22,149.6-62c32.1-32.1,52.6-72.7,59.4-116.8.2-1.4-.9-2.7-2.3-2.7Z"/>
    <path class="st1" d="M602.9,180c7.1-1.7,12.4-4.9,12.6-7.4-1.3-2.2-7.5-2.6-14.6-1-7.1,1.7-12.4,4.9-12.6,7.4,1.3,2.2,7.5,2.6,14.6,1Z"/>
    <path class="st1" d="M627.9,171.7c.8,3.2,8.3,4.2,16.7,2.2,8.5-2,14.7-6.2,14-9.4l-1.1-4.6c-.8-3.2-8.3-4.2-16.7-2.2-8.5,2-14.7,6.2-14,9.4l1.1,4.6Z"/>
    <path class="st1" d="M472.6,232.9c.1-.4.2-.9.3-1.3-1.5-.6-3-1.2-4.4-1.9-.2.7-.3,1.4-.5,2.1-.3,1.5.8,2.9,2.3,2.9s2-.8,2.3-1.8Z"/>
    <path class="st1" d="M548,140.3c17.7-8.2,37.1-12.5,57.2-12.5s9.5.3,14.2.7c3.4-.1,6.7-.2,10-.2,5.8,0,11.3.2,16.4.7-13-3.9-26.6-5.9-40.6-5.9-28.5,0-55.6,8.4-78.7,24,7-2.5,14.2-4.7,21.5-6.7Z"/>
    <path class="st1" d="M742.4,231.8c-5.9-25.4-18.7-48.7-37.6-67.6-3.9-3.9-8-7.6-12.3-10.9.1.4.2.8.3,1.2.4,1.7.6,3.6.6,5.7,2.8,2.4,5.5,4.8,8,7.4,18.3,18.3,30.7,40.8,36.3,65.3.2,1.1,1.2,1.8,2.3,1.8h0c1.5,0,2.6-1.4,2.3-2.9Z"/>
    <path class="st1" d="M563.3,145.4c-61.9,14.6-108.1,43.2-103.2,63.9,4.9,20.7,59,25.6,120.9,11.1,61.9-14.6,108.1-43.2,103.2-63.9-4.9-20.7-59-25.6-120.9-11.1ZM662.4,157.1l.2,1s0,0,0,0l1.5,6.5c1.2,4.9-7.1,11.1-18.4,13.8-11.9,2.8-59.6,13.3-62.2,2.3,0-.2,0-.3,0-.5,0-.2-.1-.3-.2-.5-2.7-11.6,45.3-23.8,56.5-26.6,11.3-2.9,21.5-.9,22.6,4.1Z"/>
    <path class="st1" d="M739.8,410c-1.1,0-2,.8-2.3,1.8v.2s2.6,1.1,2.6,1.1c.6.2,1.2.5,1.8.8,0-.3.2-.7.2-1,.4-1.5-.8-2.9-2.3-2.9Z"/>
    <path class="st1" d="M662.4,503.4c-17.7,8.2-37.1,12.5-57.2,12.5s-9.5-.3-14.2-.7c-3.4.1-6.7.2-10,.2s0,0,0,0c-5.8,0-11.3-.2-16.4-.7,13,3.9,26.6,5.9,40.6,5.9,28.5,0,55.6-8.4,78.7-24-7,2.5-14.2,4.7-21.5,6.7Z"/>
    <path class="st1" d="M505.6,479.4c3.9,3.9,8,7.6,12.3,10.9-.1-.4-.2-.8-.3-1.2-.5-1.9-.6-3.8-.6-5.7-2.8-2.4-5.5-4.8-8.1-7.4-18-18-30.3-40.2-36.1-64.3-.3-1.1-1.2-1.8-2.3-1.8s-2.6,1.4-2.3,2.9c6,25,18.7,47.9,37.4,66.5Z"/>
    <path class="st1" d="M736.7,421.2l3.6,15.5c.8,3.4-4.4,12.3-22,23.2-18.6,11.5-44.7,21.6-73.6,28.4-28.9,6.8-56.8,9.5-78.5,7.5-20.6-1.9-29.2-7.6-30-10.9t0,0l-3.6-15.5c-5.3,6.2-7.6,12.3-6.3,17.8,4.9,20.7,59,25.6,120.9,11.1,61.9-14.6,108.1-43.2,103.2-63.9-1.3-5.5-6.1-9.9-13.6-13.1Z"/>
    <path class="st1" d="M609.1,233.1c1-.4,1.7-1.5,1.4-2.6-.5-1.9-.9-3.8-1.4-5.7-.3-1-1.3-1.6-2.3-1.2-38.1,13.1-79.1,17.1-119.6,11.1-1.1-.2-1.8.5-1.5,1.6,3.4,14,6.8,28,10.2,42.1.3,1,1.4,2,2.5,2.2,40.5,6,81.5,2,119.6-11.2,1-.4,1.7-1.5,1.4-2.6-.5-1.9-.9-3.8-1.4-5.7-.3-1-1.3-1.6-2.3-1.2-35.6,12.2-73.7,16.5-111.6,12.2-.7-2.9-1.4-5.8-2.1-8.7,37.9,4.4,76,0,111.6-12.2,1-.4,1.7-1.5,1.4-2.6-.5-1.9-.9-3.8-1.4-5.7-.3-1-1.3-1.6-2.3-1.2-35.6,12.2-73.7,16.5-111.6,12.2-.7-2.9-1.4-5.8-2.1-8.7,37.9,4.4,76,0,111.6-12.2Z"/>
    <path class="st1" d="M683.1,226.9c-.3-1-1.2-1.4-2.1-.7-16.1,11.6-33.4,21.1-51.5,28.6-2.8-11.5-5.6-23-8.4-34.6-.3-1-1.3-1.6-2.3-1.1-1.9.7-3.7,1.5-5.6,2.2-1,.4-1.7,1.5-1.4,2.6,3.4,14,6.8,28.1,10.2,42.1.3,1,1.3,1.6,2.3,1.2,20.8-7.8,40.6-18.3,59-31.5.9-.7,1.4-2,1.2-3.1-.5-1.9-.9-3.8-1.4-5.7Z"/>
    <path class="st1" d="M537.2,396.7c4.1.4,8.1.7,12.2,1,7.2.4,11.7-5.2,10.1-12-1.9-7.9-3.9-15.9-5.8-23.8-.3-1-1.4-1.9-2.5-1.9-2,0-4,0-6-.1-1.1,0-1.8.8-1.5,1.8,1.9,7.9,3.9,15.9,5.8,23.8.4,1.6-.7,2.8-2.3,2.7-4.1-.2-8.1-.5-12.2-1-1.7-.2-3.3-1.6-3.7-3.2-6.9-28.6-13.9-57.1-20.8-85.7-.4-1.6.7-2.7,2.3-2.5,4.1.4,8.1.7,12.2,1,1.7,0,3.3,1.4,3.7,3,1,4.2,2,8.4,3.1,12.7.3,1,1.4,1.9,2.5,2,2,0,4,.1,6,.1,1.1,0,1.8-.8,1.5-1.9-1-4.2-2-8.4-3.1-12.7-1.7-6.8-8.8-12.3-16.1-12.7-4.1-.2-8.1-.5-12.2-1-7.2-.7-11.7,3.8-10.1,10.7,6.9,28.6,13.9,57.1,20.8,85.7,1.7,6.8,8.8,13.3,16.1,14Z"/>
    <path class="st1" d="M660.3,378.7c1.8-.8,3.7-1.6,5.5-2.4,1-.4,1.6-1.7,1.4-2.7-8-33-16-66-24-99,2.1-1,4.2-1.9,6.3-3,1-.5,1.6-1.7,1.3-2.8-.5-1.9-.9-3.8-1.4-5.7-.3-1-1.3-1.5-2.3-1-7.2,3.5-14.5,6.6-22,9.4-1,.4-1.7,1.5-1.4,2.6.5,1.9.9,3.8,1.4,5.7.3,1,1.3,1.6,2.3,1.2,2.2-.8,4.3-1.7,6.5-2.5,8,33,16,66,24,99,.3,1,1.3,1.6,2.3,1.1Z"/>
    <path class="st1" d="M687.9,246.5c-.5-1.9-.9-3.8-1.4-5.7-.3-1-1.2-1.4-2.1-.7-7.7,5.6-15.7,10.6-23.9,15.2,0,0,0,0,0,0-2.3,1.3-4.7,2.6-7.1,3.8-1,.5-1.6,1.8-1.3,2.8,8.6,35.5,17.2,71.1,25.9,106.6.3,1,1.3,1.5,2.2,1,10.7-5.6,21.1-11.9,31-19,.9-.7,1.4-2,1.2-3.1-.5-1.9-.9-3.8-1.4-5.7-.3-1-1.2-1.4-2.1-.7-7.7,5.6-15.7,10.6-23.9,15.2-5.1-20.9-10.1-41.7-15.2-62.6,8.1-4.5,16-9.5,23.6-15,.9-.7,1.4-2,1.2-3.1-.5-1.9-.9-3.8-1.4-5.7-.3-1-1.2-1.4-2.1-.7-7.6,5.5-15.5,10.5-23.6,15-1.6-6.4-3.1-12.8-4.7-19.3,8.2-4.6,16.2-9.7,23.9-15.2.9-.7,1.4-2,1.2-3.1Z"/>
    <path class="st1" d="M628.4,480.8c6.2-1.1,12.4-2.4,18.5-4,6.9-1.8,11.1-9.1,9.5-15.9-4.7-19.2-9.3-38.3-14-57.5-1.7-6.8-8.5-10.6-15.5-8.8-6.1,1.6-12.3,2.9-18.5,4-1.1.2-1.8,1.2-1.5,2.2,6.3,26.1,12.7,52.3,19,78.4.3,1,1.3,1.8,2.4,1.6ZM629.2,404.2c1.6-.4,3.2.5,3.6,2.1,4.7,19.2,9.3,38.3,14,57.5.4,1.6-.6,3.2-2.2,3.6-3.5.9-7.1,1.7-10.6,2.5-5.1-21.1-10.2-42.1-15.3-63.2,3.6-.7,7.1-1.6,10.6-2.5Z"/>
    <path class="st1" d="M714.3,395.8c3.6,14.7,7.2,29.5,10.7,44.2.3,1,1.2,1.4,2.1.8,1.7-1.1,3.3-2.3,5-3.5.9-.7,1.4-2,1.2-3.1-3.6-14.7-7.2-29.5-10.7-44.2-.7-2.9-2.2-4.9-4.1-6,.9-3.1,1.1-6.4.4-9.2-.7-2.9-1.4-5.8-2.1-8.7-1.7-6.8-7.8-8.8-13.8-4.9-4.8,3.1-9.7,6.1-14.7,8.9-1,.5-1.6,1.8-1.3,2.9,6.4,26.2,12.7,52.4,19.1,78.6.3,1,1.2,1.5,2.2.9,1.8-1,3.5-2,5.2-3,1-.6,1.5-1.9,1.3-2.9-3.8-15.7-7.6-31.4-11.4-47.1,2.6-1.6,5.2-3.2,7.7-4.9,1.4-.9,2.8-.4,3.2,1.2ZM708.8,385.1c-2.6,1.7-5.1,3.3-7.7,4.9-1.2-4.8-2.3-9.6-3.5-14.4,2.6-1.6,5.2-3.2,7.7-4.9,1.4-.9,2.8-.4,3.2,1.2.7,2.9,1.4,5.8,2.1,8.7.4,1.6-.4,3.6-1.8,4.5Z"/>
    <path class="st1" d="M589.9,484.7c10.7-.3,21.3-1.2,31.8-2.8,1.1-.2,1.8-1.2,1.5-2.2-.5-1.9-.9-3.8-1.4-5.7-.3-1-1.3-1.8-2.4-1.6-7.9,1.2-15.9,2-23.8,2.4-3.2-13.1-6.4-26.2-9.5-39.3,8-.4,16-1.2,23.8-2.4,1.1-.2,1.8-1.2,1.5-2.2-.5-1.9-.9-3.8-1.4-5.7-.3-1-1.3-1.8-2.4-1.6-7.9,1.2-15.9,2-23.8,2.4-1.2-4.8-2.3-9.6-3.5-14.4,8-.4,16-1.2,23.8-2.4,1.1-.2,1.8-1.2,1.5-2.2-.5-1.9-.9-3.8-1.4-5.7-.3-1-1.3-1.8-2.4-1.6-10.5,1.6-21.2,2.5-31.9,2.7-1.1,0-1.8.9-1.5,1.9,6.3,26.2,12.7,52.3,19,78.5.3,1.1,1.4,1.9,2.5,1.9Z"/>
    <path class="st1" d="M631,388.8c4.9-1.4,9.7-2.9,14.5-4.5,1-.4,1.7-1.5,1.4-2.6-8.6-35.5-17.2-71.1-25.9-106.6-.3-1-1.3-1.6-2.3-1.2-1.9.6-3.8,1.3-5.7,1.9-1,.3-1.7,1.4-1.4,2.5,8.2,33.6,16.3,67.2,24.5,100.9-12.7-32.3-25.4-64.7-38.2-97.3-.4-.9-1.3-1.4-2.3-1.2-4.9,1.2-9.9,2.2-14.9,3.1-1.1.2-1.8,1.2-1.5,2.2,8.6,35.5,17.2,71.1,25.9,106.6.3,1,1.3,1.8,2.4,1.6,2-.3,3.9-.7,5.9-1.1,1.1-.2,1.7-1.3,1.5-2.3-8.2-33.7-16.4-67.4-24.5-101,12.8,32.8,25.6,65.5,38.4,98,.4.9,1.3,1.4,2.3,1.1Z"/>
    <path class="st1" d="M568.1,484.3c5,.3,10,.5,15,.5,1.1,0,1.8-.8,1.5-1.9-6.3-26.2-12.7-52.3-19-78.5-.3-1-1.4-1.9-2.5-1.9-2,0-4,0-6,0-1.1,0-1.8.8-1.5,1.8,5.8,23.8,11.6,47.6,17.3,71.4-9.7-24-19.4-48.2-29.1-72.4-.4-.9-1.4-1.7-2.4-1.8-4.7-.4-9.5-1-14.2-1.7-1.1-.2-1.8.5-1.5,1.6,6.3,26.2,12.7,52.3,19,78.5.3,1,1.4,2,2.5,2.2,2,.3,4,.6,6,.8,1.1.1,1.8-.6,1.5-1.7-5.4-22.1-10.8-44.3-16.1-66.4,9,22.7,18,45.2,27,67.7.4.9,1.4,1.7,2.4,1.7Z"/>
    <path class="st1" d="M674.2,468.2c6.3-2.4,12.5-5,18.6-7.9,6.5-3.1,10.3-11.4,8.6-18.2-4.7-19.2-9.3-38.3-14-57.5-1.7-6.8-8.1-9.5-14.6-6.5-6.1,2.9-12.3,5.5-18.6,7.9-6.7,2.5-10.9,9.8-9.2,16.6,4.7,19.2,9.3,38.3,14,57.5,1.7,6.8,8.5,10.6,15.2,8.1ZM680.7,398.1c3.9,16.2,7.9,32.4,11.8,48.6.4,1.6-.5,3.4-2,4.2-5.2,2.5-10.5,4.8-15.9,6.9l6.1-59.6ZM656.6,395.5c5.7-2.2,11.4-4.6,16.9-7.1l-6.5,62.8c-4.2-17.2-8.4-34.5-12.6-51.7-.4-1.6.6-3.3,2.1-3.9Z"/>
    <path class="st1" d="M563,286.3c-3.8.4-7.6.7-11.4.9-7.2.4-11.7,6-10,12.8,6.9,28.6,13.9,57.1,20.8,85.7,1.7,6.8,8.8,12.3,16,11.9,3.8-.2,7.6-.5,11.4-.9,7.1-.7,11.5-7.2,9.9-14-6.9-28.6-13.9-57.1-20.8-85.7-1.7-6.8-8.7-11.4-15.9-10.7ZM551.5,299.7c-.4-1.6.7-2.9,2.3-3,3.1-.2,6.1-.4,9.2-.7l4.8,70.8c-5.4-22.4-10.9-44.7-16.3-67.1ZM587.4,387.2c-3.3.4-6.7.6-10,.9l-5.1-75.8c5.8,23.9,11.6,47.8,17.4,71.8.4,1.6-.6,3-2.3,3.2Z"/>
    <path class="st1" d="M717.5,228.8c0,10.3-7.6,18.8-17.4,20.2,9.9,1.5,17.4,10,17.4,20.2,0-10.3,7.6-18.8,17.4-20.2-9.9-1.5-17.4-10-17.4-20.2Z"/>
    <path class="st1" d="M496.4,417.9c0-10.3,7.6-18.8,17.4-20.2-9.9-1.5-17.4-10-17.4-20.2,0,10.3-7.6,18.8-17.4,20.2,9.9,1.5,17.4,10,17.4,20.2Z"/>
    <path class="st1" d="M761.2,423.9c6.4,2.2,10.3,8.8,9,15.7,1.3-6.8,7.4-11.5,14.2-11.2-6.4-2.2-10.3-8.8-9-15.7-1.3,6.8-7.4,11.5-14.2,11.2Z"/>
    <path class="st1" d="M450.8,423.9c-6.7.3-12.8-4.4-14.2-11.2,1.3,6.8-2.6,13.4-9,15.7,6.7-.3,12.8,4.4,14.2,11.2-1.3-6.8,2.6-13.4,9-15.7Z"/>
    <path class="st1" d="M784.3,218.6c-6.7.3-12.8-4.4-14.2-11.2,1.3,6.8-2.6,13.4-9,15.7,6.7-.3,12.8,4.4,14.2,11.2-1.3-6.8,2.6-13.4,9-15.7Z"/>
    <path class="st1" d="M436.6,234.3c1.3-6.8,7.4-11.5,14.2-11.2-6.4-2.2-10.3-8.8-9-15.7-1.3,6.8-7.4,11.5-14.2,11.2,6.4,2.2,10.3,8.8,9,15.7Z"/>
    <rect class="st1" x="743.5" y="263.5" width="23.6" height="23.6"/>
    <polygon class="st1" points="767.1 310.6 743.5 310.6 743.5 334.2 767.1 334.2 767.1 310.7 790.7 310.7 790.7 334.2 814.3 334.2 814.3 310.6 790.7 310.6 790.7 287.1 767.1 287.1 767.1 310.6"/>
    <rect class="st1" x="790.7" y="263.5" width="23.6" height="23.6"/>
    <polygon class="st1" points="767.1 357.7 743.5 357.7 743.5 381.3 767.1 381.3 767.1 357.8 790.7 357.8 790.7 381.3 814.3 381.3 814.3 357.7 790.7 357.7 790.7 334.2 767.1 334.2 767.1 357.7"/>
    <rect class="st1" x="396.2" y="263.5" width="23.6" height="23.6"/>
    <polygon class="st1" points="443.4 310.7 443.4 334.2 466.9 334.2 466.9 310.6 443.4 310.6 443.4 287.1 419.8 287.1 419.8 310.6 396.2 310.6 396.2 334.2 419.8 334.2 419.8 310.7 443.4 310.7"/>
    <rect class="st1" x="443.4" y="263.5" width="23.6" height="23.6"/>
    <polygon class="st1" points="396.2 357.7 396.2 381.3 419.8 381.3 419.8 357.8 443.4 357.8 443.4 381.3 466.9 381.3 466.9 357.7 443.4 357.7 443.4 334.2 419.8 334.2 419.8 357.7 396.2 357.7"/>
  </g>
  <path class="st0" d="M906.6,122.9c0,13.3-9.8,24.3-22.6,26.2,12.8,1.9,22.6,12.9,22.6,26.2,0-13.3,9.8-24.3,22.6-26.2-12.8-1.9-22.6-12.9-22.6-26.2Z"/>
  <path class="st0" d="M148.6,332.7c0,13.3-9.8,24.3-22.6,26.2,12.8,1.9,22.6,12.9,22.6,26.2,0-13.3,9.8-24.3,22.6-26.2-12.8-1.9-22.6-12.9-22.6-26.2Z"/>
  <path class="st0" d="M311.6,61.5c0,13.3-9.8,24.3-22.6,26.2,12.8,1.9,22.6,12.9,22.6,26.2,0-13.3,9.8-24.3,22.6-26.2-12.8-1.9-22.6-12.9-22.6-26.2Z"/>
  <path class="st0" d="M972.5,375.2c0,13.3-9.8,24.3-22.6,26.2,12.8,1.9,22.6,12.9,22.6,26.2,0-13.3,9.8-24.3,22.6-26.2-12.8-1.9-22.6-12.9-22.6-26.2Z"/>
  <path class="st0" d="M68.3,41.4c0,13.3-9.8,24.3-22.6,26.2,12.8,1.9,22.6,12.9,22.6,26.2,0-13.3,9.8-24.3,22.6-26.2-12.8-1.9-22.6-12.9-22.6-26.2Z"/>
  <path class="st0" d="M359.6,504.7c0,13.3-9.8,24.3-22.6,26.2,12.8,1.9,22.6,12.9,22.6,26.2,0-13.3,9.8-24.3,22.6-26.2-12.8-1.9-22.6-12.9-22.6-26.2Z"/>
  <path class="st0" d="M1023.8,255.2c0,10.2-7.5,18.6-17.3,20.1,9.8,1.4,17.3,9.9,17.3,20.1,0-10.2,7.5-18.6,17.3-20.1-9.8-1.5-17.3-9.9-17.3-20.1Z"/>
  <path class="st0" d="M104,552.2c0,10.2-7.5,18.6-17.3,20.1,9.8,1.4,17.3,9.9,17.3,20.1,0-10.2,7.5-18.6,17.3-20.1-9.8-1.5-17.3-9.9-17.3-20.1Z"/>
  <path class="st0" d="M835.2,530.5c0,7.6-5.6,13.8-12.8,14.9,7.3,1.1,12.8,7.3,12.8,14.9,0-7.6,5.6-13.8,12.8-14.9-7.3-1.1-12.8-7.3-12.8-14.9Z"/>
  <path class="st0" d="M705.7,31.5c0,7.6-5.6,13.8-12.8,14.9,7.3,1.1,12.8,7.3,12.8,14.9,0-7.6,5.6-13.8,12.8-14.9-7.3-1.1-12.8-7.3-12.8-14.9Z"/>
  <path class="st0" d="M1141,45.9c0,8.2-6.1,15-14,16.2,7.9,1.2,14,8,14,16.2,0-8.2,6.1-15,14-16.2-7.9-1.2-14-8-14-16.2Z"/>
  <path class="st0" d="M1125.4,497.6c0,5.6-4.1,10.2-9.5,11,5.4.8,9.5,5.4,9.5,11,0-5.6,4.1-10.2,9.5-11-5.4-.8-9.5-5.4-9.5-11Z"/>
  <path class="st0" d="M120.2,194.4c0,5.6-4.1,10.2-9.5,11,5.4.8,9.5,5.4,9.5,11,0-5.6,4.1-10.2,9.5-11-5.4-.8-9.5-5.4-9.5-11Z"/>
  <path class="st0" d="M965.8,158.2c0,5.6-4.1,10.2-9.5,11,5.4.8,9.5,5.4,9.5,11,0-5.6,4.1-10.2,9.5-11-5.4-.8-9.5-5.4-9.5-11Z"/>
  <path class="st0" d="M245.8,410c0,5.6-4.1,10.2-9.5,11,5.4.8,9.5,5.4,9.5,11,0-5.6,4.1-10.2,9.5-11-5.4-.8-9.5-5.4-9.5-11Z"/>
  <path class="st0" d="M1093,254.8c0,5.6-4.1,10.2-9.5,11,5.4.8,9.5,5.4,9.5,11,0-5.6,4.1-10.2,9.5-11-5.4-.8-9.5-5.4-9.5-11Z"/>
  <path class="st0" d="M323.3,228.2c0,5.6-4.1,10.2-9.5,11,5.4.8,9.5,5.4,9.5,11,0-5.6,4.1-10.2,9.5-11-5.4-.8-9.5-5.4-9.5-11Z"/>
</svg>