<svg xmlns="http://www.w3.org/2000/svg" width="170.041" height="29.868" viewBox="0 0 170.041 29.868"><g transform="translate(85.02 14.934)"><g transform="translate(-85.02 -14.934)"><path d="M537.084,29.4a.626.626,0,0,0,.6-.448l4.231-14.23,2.015-6.775.262-.88a1.907,1.907,0,0,1,3.682,0l.262.88,2.015,6.775,4.231,14.23a.626.626,0,0,0,.6.448h4.993a.626.626,0,0,0,.6-.808l-6.94-22.906-.022-.073a7.93,7.93,0,0,0-15.156,0l-.022.073-6.94,22.906a.626.626,0,0,0,.6.808Z" transform="translate(-413.111 -0.012)" fill="#333132"/><path d="M38.753,7.927v20.83a.626.626,0,0,1-.626.626H33.359a.626.626,0,0,1-.626-.626V7.545a1.906,1.906,0,0,0-3.809-.121L27.269,22.2a7.925,7.925,0,0,1-15.791-.112L9.826,7.374c0-.029-.005-.057-.01-.085a1.906,1.906,0,0,0-3.8.256V28.757a.627.627,0,0,1-.626.626H.626A.627.627,0,0,1,0,28.757V7.927a7.928,7.928,0,0,1,15.8-.91l1.673,14.961a1.907,1.907,0,0,0,3.8.051L22.933,7.192a7.927,7.927,0,0,1,15.82.736Z" transform="translate(0)" fill="#333132"/><path d="M657.748,2.174a.606.606,0,0,0-.577.42l-4.385,13.983a1.82,1.82,0,0,1-3.469-.011L644.935,2.594a.606.606,0,0,0-.577-.42h-5.094a.606.606,0,0,0-.577.792l4.86,15.048a7.849,7.849,0,0,0,4.476,4.882v7.572a.606.606,0,0,0,.606.606h4.848a.606.606,0,0,0,.606-.606V22.9a7.839,7.839,0,0,0,4.473-4.871l4.863-15.059a.606.606,0,0,0-.577-.792Z" transform="translate(-496.433 -1.69)" fill="#333132"/><path d="M197.179,0a14.934,14.934,0,1,0,14.934,14.934A14.951,14.951,0,0,0,197.179,0Zm0,24.229a9.22,9.22,0,0,1-8.91-9.3,8.919,8.919,0,1,1,17.821,0A9.22,9.22,0,0,1,197.179,24.229Z" transform="translate(-141.66)" fill="#333132"/><path d="M340.384,19.6h-5.63l0,0a5.881,5.881,0,0,1-.123-11.751l.007-.008h6.882a.606.606,0,0,0,.606-.606V2.78a.606.606,0,0,0-.606-.606h-6.7a11.767,11.767,0,0,0-11.828,11.471,11.448,11.448,0,0,0,11.651,11.614h5.749a5.842,5.842,0,0,1,5.567,5.255.611.611,0,0,0,.6.56h4.858a.607.607,0,0,0,.607-.637A11.51,11.51,0,0,0,340.384,19.6Z" transform="translate(-251.056 -1.69)" fill="#333132"/><path d="M450.292,2.78a.606.606,0,0,0-.606-.606h-5.75a11.082,11.082,0,0,0-8.083,3.5,11.082,11.082,0,0,0-8.083-3.5H422a.606.606,0,0,0-.606.606V7.226a.606.606,0,0,0,.606.606h5.772a5.052,5.052,0,0,1,5.052,5.052V30.467a.606.606,0,0,0,.606.606h4.85a.606.606,0,0,0,.606-.606V12.884a5.052,5.052,0,0,1,5.052-5.052h5.75a.606.606,0,0,0,.606-.606Z" transform="translate(-327.551 -1.69)" fill="#333132"/><rect width="6.049" height="6.049" rx="0.603" transform="translate(163.991 23.332)" fill="#ff0024"/></g></g></svg>