<?xml version="1.0" encoding="UTF-8"?>
<svg id="Layer_1" xmlns="http://www.w3.org/2000/svg" xmlns:xlink="http://www.w3.org/1999/xlink" version="1.1" viewBox="0 0 113.39 113.39">
  <!-- Generator: Adobe Illustrator 29.6.1, SVG Export Plug-In . SVG Version: 2.1.1 Build 9)  -->
  <defs>
    <style>
      .st0 {
        fill: none;
      }

      .st1 {
        fill: #ff0024;
      }

      .st2 {
        clip-path: url(#clippath-1);
      }

      .st3 {
        fill: #333132;
      }

      .st4 {
        clip-path: url(#clippath);
      }
    </style>
    <clipPath id="clippath">
      <rect class="st0" x="3.93" y="24.71" width="105.72" height="64.84"/>
    </clipPath>
    <clipPath id="clippath-1">
      <rect class="st0" x="3.93" y="24.71" width="105.72" height="64.84"/>
    </clipPath>
  </defs>
  <g id="M._FB">
    <g class="st4">
      <g class="st2">
        <path class="st3" d="M89.43,42.2v45.96c0,.76-.62,1.38-1.38,1.38h-10.52c-.76,0-1.38-.62-1.38-1.38v-46.8c0-2.32-1.88-4.21-4.21-4.21s-4.06,1.74-4.2,3.94l-3.65,32.6c-.83,8.89-8.31,15.85-17.41,15.85s-16.66-7.14-17.42-16.1l-3.65-32.46c0-.06-.01-.13-.02-.19-.28-2.06-2.04-3.64-4.17-3.64-2.32,0-4.21,1.88-4.21,4.21v46.8c0,.76-.62,1.38-1.38,1.38H5.32c-.76,0-1.38-.62-1.38-1.38v-45.96c0-9.66,7.83-17.49,17.49-17.49,8.98,0,16.38,6.77,17.37,15.48l3.69,33.01c.16,2.18,1.98,3.9,4.19,3.9s3.97-1.66,4.19-3.78l3.66-32.74c.82-8.9,8.3-15.87,17.41-15.87,9.66,0,17.49,7.83,17.49,17.49"/>
        <path class="st1" d="M97.7,89.55h10.61c.74,0,1.34-.6,1.34-1.34v-10.61c0-.74-.6-1.34-1.34-1.34h-10.61c-.74,0-1.34.6-1.34,1.34v10.61c0,.74.6,1.34,1.34,1.34"/>
      </g>
    </g>
  </g>
</svg>