<?xml version="1.0" encoding="utf-8"?>
<!-- Generator: Adobe Illustrator 24.0.1, SVG Export Plug-In . SVG Version: 6.00 Build 0)  -->
<svg version="1.1" id="Layer_1" xmlns="http://www.w3.org/2000/svg" xmlns:xlink="http://www.w3.org/1999/xlink" x="0px" y="0px"
	 viewBox="0 0 144.57 26" style="enable-background:new 0 0 144.57 26;" xml:space="preserve">
<style type="text/css">
	.st0{fill:#FFFFFF;}
	.st1{fill:#FF1F1F;}
</style>
<g>
	<g>
		<path class="st0" d="M25.5,1.62c-3.26,0-5.97,2.44-6.31,5.68l-1.26,10.68l-0.06,0.52c-0.08,0.74-0.71,1.3-1.46,1.3
			s-1.38-0.56-1.46-1.3L13.64,7.29c-0.34-3.24-3.05-5.67-6.31-5.67c-3.5,0-6.34,2.84-6.34,6.34l0,16.39c0,0.27,0.22,0.49,0.49,0.49
			l3.9,0c0.27,0,0.49-0.22,0.49-0.49l0-16.39c0-0.81,0.66-1.47,1.47-1.47c0.76,0,1.38,0.57,1.46,1.32l1.32,11.24l0,0.01
			c0.36,3.21,3.07,5.62,6.3,5.62c3.05,0,5.63-2.15,6.22-5.09l0.03-0.05l1.38-11.7l0.01-0.12c0.11-0.71,0.72-1.23,1.45-1.23
			c0.81,0,1.47,0.66,1.47,1.47l0,16.39c0,0.27,0.22,0.49,0.49,0.49l3.9,0c0.27,0,0.49-0.22,0.49-0.49l0-16.39
			C31.84,4.46,28.99,1.62,25.5,1.62z"/>
		<path class="st0" d="M46.58,0.46c-7.04,0-12.77,5.73-12.77,12.77S39.54,26,46.58,26c7.04,0,12.77-5.73,12.77-12.77
			S53.62,0.46,46.58,0.46z M46.58,21.2c-4.4,0-7.97-3.58-7.97-7.97s3.58-7.97,7.97-7.97s7.97,3.58,7.97,7.97S50.97,21.2,46.58,21.2z
			"/>
		<path class="st0" d="M75.04,15.48h-4.53c-2.45,0-4.52-1.92-4.59-4.36c-0.08-2.54,1.97-4.64,4.5-4.64h5.53
			c0.27,0,0.49-0.22,0.49-0.49V2.1c0-0.27-0.22-0.49-0.49-0.49h-5.39c-5.14,0-9.43,4.08-9.51,9.22c-0.08,5.23,4.15,9.52,9.37,9.52
			h4.62c2.33,0,4.25,1.78,4.48,4.05c0.03,0.25,0.23,0.45,0.49,0.45h3.91c0.28,0,0.5-0.23,0.49-0.51
			C84.12,19.41,80.03,15.48,75.04,15.48z"/>
		<path class="st0" d="M102.5,2.11c0-0.27-0.22-0.49-0.49-0.49h-4.7c-2.56,0-4.87,1.08-6.49,2.81c-1.63-1.73-3.94-2.81-6.49-2.81
			h-4.72c-0.27,0-0.49,0.22-0.49,0.49V6c0,0.27,0.22,0.49,0.49,0.49h4.72c2.24,0,4.06,1.82,4.06,4.06v13.8
			c0,0.27,0.22,0.49,0.49,0.49h3.9c0.27,0,0.49-0.22,0.49-0.49v-13.8c0-2.24,1.82-4.06,4.06-4.06h4.7c0.27,0,0.49-0.22,0.49-0.49
			V2.11z"/>
		<path class="st0" d="M111.25,1.61c-2.77,0-5.19,1.77-6.03,4.4l-5.87,18.18c-0.1,0.31,0.13,0.64,0.46,0.64h4.1
			c0.21,0,0.4-0.14,0.46-0.34l5.49-16.99c0.19-0.61,0.75-1.02,1.39-1.02c0.64,0,1.2,0.41,1.4,1.02l5.49,16.98
			c0.06,0.2,0.25,0.34,0.46,0.34h4.1c0.33,0,0.57-0.32,0.46-0.64l-5.87-18.17C116.44,3.38,114.02,1.61,111.25,1.61z"/>
		<path class="st0" d="M136.11,1.61c-0.21,0-0.4,0.14-0.46,0.34l-3.53,10.92c-0.19,0.61-0.75,1.02-1.39,1.02
			c-0.64,0-1.2-0.41-1.4-1.02l-3.52-10.91c-0.06-0.2-0.25-0.34-0.46-0.34h-4.1c-0.33,0-0.57,0.32-0.46,0.64l3.91,12.1
			c0.58,1.82,1.92,3.23,3.6,3.92v6.09c0,0.27,0.22,0.49,0.49,0.49h3.9c0.27,0,0.49-0.22,0.49-0.49v-6.09c1.68-0.7,3.02-2.1,3.6-3.92
			l3.91-12.11c0.1-0.31-0.13-0.64-0.46-0.64H136.11z"/>
	</g>
	<path class="st1" d="M139.18,24.85h3.36c0.42,0,0.75-0.34,0.75-0.75v-3.36c0-0.42-0.34-0.75-0.75-0.75h-3.36
		c-0.42,0-0.75,0.34-0.75,0.75v3.36C138.42,24.51,138.76,24.85,139.18,24.85z"/>
</g>
</svg>
