<svg xmlns="http://www.w3.org/2000/svg" width="156" height="27.997" viewBox="0 0 156 27.997"><g transform="translate(-27 -25)"><g transform="translate(-493.302 -195.177)"><path d="M547.17,221.45a6.93,6.93,0,0,0-6.913,6.232l-1.377,11.707-.067.564a1.611,1.611,0,0,1-3.2,0l-1.446-12.285a6.95,6.95,0,0,0-13.862.732l0,17.967a.534.534,0,0,0,.534.534h4.272a.534.534,0,0,0,.534-.534l0-17.967a1.61,1.61,0,0,1,3.212-.168l1.449,12.321v.006a6.951,6.951,0,0,0,13.721.586l.029-.052,1.509-12.82.015-.13a1.611,1.611,0,0,1,3.2.257v17.967a.534.534,0,0,0,.534.534h4.272a.534.534,0,0,0,.534-.534V228.4A6.958,6.958,0,0,0,547.17,221.45Z" fill="#fff"/><path d="M570.277,220.177a14,14,0,1,0,14,14A14.015,14.015,0,0,0,570.277,220.177Zm0,22.741a8.742,8.742,0,1,1,8.742-8.742A8.752,8.752,0,0,1,570.277,242.918Z" fill="#fff"/><path d="M601.474,236.641h-4.963a5,5,0,0,1-5.035-4.782,4.938,4.938,0,0,1,4.93-5.081h6.066a.534.534,0,0,0,.534-.534v-4.272a.534.534,0,0,0-.534-.534h-5.91a10.272,10.272,0,1,0-.156,20.543h5.068a4.938,4.938,0,0,1,4.907,4.439.539.539,0,0,0,.532.493H611.2a.534.534,0,0,0,.534-.561A10.285,10.285,0,0,0,601.474,236.641Z" fill="#fff"/><path d="M631.586,221.981a.534.534,0,0,0-.534-.533H625.9a9.759,9.759,0,0,0-7.12,3.081,9.761,9.761,0,0,0-7.12-3.081h-5.172a.534.534,0,0,0-.534.533v4.272a.534.534,0,0,0,.534.534h5.172a4.45,4.45,0,0,1,4.45,4.45v15.132a.534.534,0,0,0,.534.534h4.272a.534.534,0,0,0,.534-.534V231.237a4.45,4.45,0,0,1,4.45-4.45h5.152a.534.534,0,0,0,.534-.534Z" fill="#fff"/><path d="M641.175,221.439a6.915,6.915,0,0,0-6.611,4.821l-6.437,19.932a.534.534,0,0,0,.509.7h4.489a.534.534,0,0,0,.508-.37l6.015-18.628a1.6,1.6,0,0,1,3.057.01l6.013,18.618a.534.534,0,0,0,.508.37h4.489a.534.534,0,0,0,.509-.7L647.79,226.27A6.918,6.918,0,0,0,641.175,221.439Z" fill="#fff"/><path d="M668.431,221.439a.533.533,0,0,0-.508.369l-3.865,11.967a1.6,1.6,0,0,1-3.057-.01l-3.861-11.957a.534.534,0,0,0-.508-.369h-4.489a.534.534,0,0,0-.509.7l4.283,13.26a6.915,6.915,0,0,0,3.944,4.3v6.673a.535.535,0,0,0,.534.534h4.272a.535.535,0,0,0,.534-.534V239.7a6.908,6.908,0,0,0,3.942-4.293l4.285-13.27a.534.534,0,0,0-.508-.7Z" fill="#fff"/><rect width="5.34" height="5.34" rx="1.208" transform="translate(670.963 241.573)" fill="#1c1c1c"/></g></g></svg>